<?xml version="1.0" encoding="UTF-8"?><svg id="a" xmlns="http://www.w3.org/2000/svg" viewBox="0 0 792 612"><defs><style>.b{fill:#1e81ce;}</style></defs><path class="b" d="M524.06,65.25v462.13h5.92c25.51,0,46.19-20.68,46.19-46.19V123.67c0-30.21-22.79-55.09-52.11-58.42Z"/><path class="b" d="M250.22,100.78h35.01c2.15,0,3.89,1.74,3.89,3.89s-1.74,3.89-3.89,3.89h-35.01v180.15h35.01c2.15,0,3.89,1.74,3.89,3.89h0c0,2.15-1.74,3.89-3.89,3.89h-35.01v171.59h35.01c2.15,0,3.89,1.74,3.89,3.89h0c0,2.15-1.74,3.89-3.89,3.89h-35.01v51.89h38.91v47.09l23.15-40.23,23.15,40.23v-47.09h177.17V65.25H250.22v35.53Zm82.73,193.91c0-6.54,5.3-11.84,11.84-11.84h106.43c6.54,0,11.84,5.3,11.84,11.84v3.63c0,6.54-5.3,11.84-11.84,11.84h-106.43c-6.54,0-11.84-5.3-11.84-11.84v-3.63Z"/></svg>