<?xml version="1.0" encoding="UTF-8"?><svg id="a" xmlns="http://www.w3.org/2000/svg" viewBox="0 0 792 612"><defs><style>.b{fill:#1e81ce;}</style></defs><path class="b" d="M439.97,313.2c3.76-10.8,6.2-22.13,7.21-33.81l-23.89-11.29c.03-3.78-.11-7.59-.46-11.41-.1-1.32-.28-2.62-.43-3.94l22.47-13.86c-2.34-11.51-6.05-22.51-10.99-32.8l-26.54,1.88c-2.59-4.49-5.48-8.8-8.63-12.88l12.35-22.94c-7.8-8.66-16.66-16.39-26.35-23.02l-22.01,14.56c-4.51-2.59-9.19-4.92-14.05-6.96l-1.04-25.89c-11.06-3.67-22.68-6.06-34.63-7.06l-11.58,23.34c-3.87-.03-7.75,.11-11.69,.44-1.37,.12-2.7,.28-4.04,.44l-14.18-21.96c-11.81,2.3-23.08,5.93-33.62,10.74l1.93,25.91c-4.59,2.54-9.02,5.35-13.19,8.43l-23.51-12.07c-8.89,7.63-16.81,16.28-23.57,25.74l14.93,21.47c-2.67,4.41-5.08,8.98-7.15,13.7l-26.53,1.02c-3.76,10.8-6.19,22.12-7.21,33.82l23.9,11.29c-.03,3.78,.1,7.59,.44,11.41,.12,1.32,.29,2.62,.47,3.93l-22.49,13.85c2.37,11.52,6.06,22.52,11,32.8l26.53-1.88c2.6,4.48,5.48,8.78,8.63,12.88l-12.36,22.93c7.8,8.69,16.68,16.42,26.36,23.03l22-14.56c4.52,2.62,9.21,4.96,14.05,6.98l1.04,25.89c11.06,3.66,22.65,6.06,34.61,7.04l11.6-23.33c3.86,.02,7.77-.11,11.69-.43,1.35-.11,2.68-.29,4-.45l14.19,21.98c11.83-2.31,23.08-5.92,33.63-10.74l-1.92-25.92c4.57-2.55,8.98-5.36,13.19-8.43l23.5,12.06c8.87-7.63,16.79-16.27,23.57-25.74l-14.9-21.47c2.65-4.41,5.04-8.99,7.14-13.72l26.52-1.01Zm-139.58,38.45c-47.78,0-86.63-37.94-86.63-84.56s38.85-84.56,86.63-84.56,86.62,37.94,86.62,84.56-38.86,84.56-86.62,84.56Z"/><path class="b" d="M300.38,192.49c-42.15,0-76.42,33.47-76.42,74.6s34.27,74.59,76.42,74.59,76.4-33.47,76.4-74.59-34.27-74.6-76.4-74.6Zm5.01,130.74c-31.76,2.71-59.76-20.25-62.54-51.25-2.75-31.01,20.75-58.34,52.51-61.03,31.77-2.71,59.78,20.24,62.53,51.24,2.76,31.02-20.73,58.35-52.49,61.04Z"/><path class="b" d="M528.47,320.38c-36.11-.74-66.1,27.33-66.85,62.58-.75,35.25,28.01,64.53,64.11,65.26,36.11,.74,66.1-27.34,66.85-62.58,.76-35.25-27.99-64.53-64.12-65.26Zm19.08,96.44c-19.24,11.1-44.1,4.66-55.15-14.41-10.36-17.91-4.15-41.5,13.77-52.33,19.09-11.54,44.05-5.45,55.43,13.3,11.23,18.54,4.95,42.47-14.05,53.44Z"/><path class="b" d="M637.88,394.97c.78-7.83,.71-15.72-.25-23.61l-18.76-4.38c-.99-4.8-2.38-9.59-4.13-14.28l13.74-13.24c-1.65-3.56-3.52-7.07-5.6-10.5-2.06-3.42-4.31-6.68-6.72-9.82l-18.5,5.4c-3.36-3.79-6.98-7.27-10.85-10.4l5.12-18.16c-6.62-4.62-13.68-8.49-21.08-11.59l-13.29,13.72c-4.79-1.62-9.7-2.85-14.68-3.7l-4.91-18.27c-8-.76-16.1-.67-24.14,.29l-4.52,18.3c-4.92,.93-9.79,2.29-14.59,4.03l-13.58-13.41c-3.62,1.6-7.25,3.39-10.75,5.44-3.51,2.02-6.86,4.22-10.06,6.54l5.51,18.1c-3.87,3.29-7.43,6.82-10.64,10.58l-18.6-4.98c-4.74,6.44-8.69,13.33-11.87,20.54l14.04,12.98c-1.66,4.68-2.88,9.47-3.76,14.33l-18.7,4.79c-.79,7.81-.71,15.72,.25,23.59l18.78,4.36c.96,4.83,2.33,9.59,4.09,14.3l-13.73,13.23c1.64,3.57,3.49,7.06,5.58,10.47,2.09,3.44,4.33,6.72,6.72,9.84l18.53-5.38c3.35,3.77,7,7.25,10.84,10.38l-5.09,18.18c6.61,4.61,13.65,8.5,21.02,11.56l13.32-13.69c4.8,1.63,9.67,2.85,14.69,3.68l4.9,18.27c7.99,.74,16.1,.69,24.17-.25l4.47-18.33c4.94-.93,9.82-2.29,14.62-4.02l13.62,13.41c3.62-1.59,7.2-3.41,10.71-5.44,3.52-2.03,6.84-4.22,10.05-6.58l-5.51-18.06c3.87-3.28,7.43-6.83,10.64-10.59l18.61,4.98c4.73-6.45,8.71-13.34,11.84-20.55l-14.04-13c1.64-4.65,2.92-9.43,3.78-14.31l18.7-4.77Zm-112.3,59.53c-39.65-.81-71.23-32.96-70.4-71.67,.82-38.7,33.75-69.54,73.41-68.73,39.65,.81,71.23,32.96,70.41,71.67-.84,38.71-33.76,69.54-73.43,68.73Z"/></svg>